<svg xmlns="http://www.w3.org/2000/svg" fill="none" viewBox="0 0 352 90" class="ml-1r36wle"><path fill="#19E" d="M44.54 89.08c24.599 0 44.54-19.941 44.54-44.54S69.139 0 44.54 0 0 19.941 0 44.54s19.941 44.54 44.54 44.54Z"></path><path fill="#fff" d="M28.07 67.52V46.8a5.5 5.5 0 0 1 11 0v20.72H50V46.8a16.48 16.48 0 0 0-32.95 0v20.72h11.02Z"></path><path fill="#fff" d="M50 67.52V46.8a5.5 5.5 0 0 1 11 0v20.72h11V46.8a16.5 16.5 0 0 0-33 0v20.72h11ZM44.84 27.17a8.35 8.35 0 1 0 0-16.7 8.35 8.35 0 0 0 0 16.7Z"></path><path fill="#19E" d="M109 64.882v-36.55h4.84l14.34 20.72 14.23-20.72h4.94v36.55h-7.32v-20.72l-10.62 15.28h-2.52l-10.68-15.28v20.72H109ZM153.91 53.502v-15.57h7v15.57c0 3.42 2 5.64 5.39 5.64 3.39 0 5.39-2.22 5.39-5.64v-15.57h7v15.57c0 7.57-4.65 12-12.36 12-7.71 0-12.42-4.43-12.42-12ZM203.02 37.932h7.61l-10.83 28.28c-2.62 6.88-6.08 10.14-11.42 10.14a9.63 9.63 0 0 1-5.19-1.33l1.22-5.84a8.253 8.253 0 0 0 3.47.89c2.17 0 3.9-1.43 5.24-4.25l.54-1.24-11.81-26.65h8.06l7 17.55 6.11-17.55ZM233.58 37.932h6.63v27h-6.63v-3.15a11.219 11.219 0 0 1-8.6 3.76 12.496 12.496 0 0 1-9.57-4.07 14.4 14.4 0 0 1-3.76-10.19 13.884 13.884 0 0 1 3.81-10 12.616 12.616 0 0 1 9.54-4 11.174 11.174 0 0 1 8.6 3.91l-.02-3.26Zm-2.07 8a7.569 7.569 0 0 0-10.83 0 7.877 7.877 0 0 0-2.08 5.49 7.77 7.77 0 0 0 2.13 5.54 7.541 7.541 0 0 0 5.39 2.272 7.532 7.532 0 0 0 5.39-2.272 8.088 8.088 0 0 0 0-11v-.03ZM253.47 64.882h-7v-37.59h7v37.59ZM262.41 41.342a15 15 0 0 1 20.77 0 13.647 13.647 0 0 1 4.06 10 13.703 13.703 0 0 1-4.06 10.09 15.2 15.2 0 0 1-20.77 0 13.699 13.699 0 0 1-4-10.09 13.651 13.651 0 0 1 4-10Zm10.39 17.75a7.002 7.002 0 0 0 5.29-2.22 7.828 7.828 0 0 0 2.18-5.49 7.582 7.582 0 0 0-2.18-5.44 6.999 6.999 0 0 0-5.29-2.23 7.105 7.105 0 0 0-5.39 2.23 7.521 7.521 0 0 0-2.13 5.44 7.738 7.738 0 0 0 2.13 5.49 7.113 7.113 0 0 0 5.35 2.22h.04ZM312.72 37.932h6.43v24.28c0 4.3-1.38 7.76-4.15 10.28a15.4 15.4 0 0 1-10.78 3.81 20.52 20.52 0 0 1-12.37-3.91l2.72-5.24a16.621 16.621 0 0 0 9.45 3.17c5.34 0 8.4-3.12 8.4-7.47v-1.38a10.569 10.569 0 0 1-8.3 3.46 12.849 12.849 0 0 1-9.7-3.91 13.621 13.621 0 0 1-3.76-9.89 13.481 13.481 0 0 1 4-9.94 13.314 13.314 0 0 1 9.79-4 10.843 10.843 0 0 1 8.31 3.66l-.04-2.92Zm-12.91 18.74a7.67 7.67 0 0 0 10.69 0 7.612 7.612 0 0 0 2.12-5.49 7.458 7.458 0 0 0-2.087-5.458 7.472 7.472 0 0 0-12.843 5.458 7.44 7.44 0 0 0 2.12 5.49ZM343.88 37.932h7.62l-10.83 28.28c-2.62 6.88-6.09 10.14-11.43 10.14a9.678 9.678 0 0 1-5.19-1.33l1.19-5.84a8.18 8.18 0 0 0 3.46.89c2.18 0 3.91-1.43 5.24-4.25l.55-1.24-11.77-26.65h8.06l7 17.55 6.1-17.55ZM293.69 27.912a3.332 3.332 0 0 1-3.11-1.53 8.543 8.543 0 0 1-.91-4.34 9.058 9.058 0 0 1 1.25-5.11 4.118 4.118 0 0 1 3.66-1.85h7.94a3.472 3.472 0 0 1 2.89 1.29 6.453 6.453 0 0 1 1.07 3.81h.93a2.3 2.3 0 0 1 .62-.83 1.6 1.6 0 0 1 1.1-.36h.58l-.48 2.1.48 2.09h-.58a1.6 1.6 0 0 1-1.1-.36 2.3 2.3 0 0 1-.62-.83h-1a5.898 5.898 0 0 1-1.2 3.31 3.153 3.153 0 0 1-2.54 1.14h-3.4v-9.41h-1.76v8.93a9.94 9.94 0 0 1-1 .95 4.7 4.7 0 0 1-1.23.73 4.361 4.361 0 0 1-1.59.27Zm.07-2c.224.01.447-.034.65-.13.172-.102.324-.234.45-.39v-8.36h-.18a1.719 1.719 0 0 0-1.39.66 4.323 4.323 0 0 0-.79 1.77 10.44 10.44 0 0 0-.26 2.46 9.086 9.086 0 0 0 .37 3c.27.68.65 1 1.15 1v-.01Zm8.16-1.45h.41a1.066 1.066 0 0 0 .83-.34c.226-.269.393-.582.49-.92.118-.408.195-.827.23-1.25 0-.45.06-.9.06-1.34v-1.17a5.992 5.992 0 0 0-.22-1.18 2.133 2.133 0 0 0-.47-.9.999.999 0 0 0-.82-.34h-.46l-.05 7.44ZM310.06 28.922l.47-2.09-.47-2.05h.58a1.6 1.6 0 0 1 1.1.35c.263.23.474.513.62.83h2.13v1.82h-2.08a2.424 2.424 0 0 1-.62.84 1.65 1.65 0 0 1-1.1.35l-.63-.05Zm3.35-1.14v-2.69a5.112 5.112 0 0 0-.33-2 8.445 8.445 0 0 0-.8-1.51c-.32-.49-.6-1-.84-1.42a3.996 3.996 0 0 1-.35-1.79 3.222 3.222 0 0 1 1.08-2.57 4.26 4.26 0 0 1 2.91-.94 4.14 4.14 0 0 1 2.9.92 3.28 3.28 0 0 1 1 2.5 3.53 3.53 0 0 1-.5 1.93 3.885 3.885 0 0 1-1.29 1.26 7.002 7.002 0 0 1-1.68.73c.201.453.338.93.41 1.42.092.572.139 1.15.14 1.73v2.43h-2.65Zm1.22-7.23c.481-.14.916-.405 1.26-.77.33-.374.502-.861.48-1.36a1.735 1.735 0 0 0-.31-1 1.078 1.078 0 0 0-1-.46 1.598 1.598 0 0 0-.95.32 1.335 1.335 0 0 0-.43 1.14c-.009.417.095.828.3 1.19.21.31.437.606.68.89l-.03.05ZM319.56 27.782c.045-1.789.255-3.57.63-5.32a7.458 7.458 0 0 1 1.44-3.19 4.741 4.741 0 0 1 2.5-1.5l-.85-2.64h2.73l3.85 12.65h-2.71l-2.38-8.06a2.312 2.312 0 0 0-1.45 1.16 8.1 8.1 0 0 0-.79 2.61 37.6 37.6 0 0 0-.4 4.29h-2.57Zm12.51-3.83a3.64 3.64 0 0 1-2.47-.71 2.385 2.385 0 0 1-.79-1.86v-.17h-1.72v-1.86h2.71a4.08 4.08 0 0 1 2.27-.55 3.61 3.61 0 0 1 2.47.7 2.3 2.3 0 0 1 .78 1.8 2.42 2.42 0 0 1-.208 1.01c-.142.318-.351.6-.612.83a3.419 3.419 0 0 1-2.43.76v.05Zm0-1.47a1.12 1.12 0 0 0 .76-.27 1.23 1.23 0 0 0 0-1.62 1.08 1.08 0 0 0-.77-.27 1.13 1.13 0 0 0-.79.27.993.993 0 0 0-.31.81 1.057 1.057 0 0 0 .31.81c.231.169.515.247.8.22v.05ZM334.96 26.902l.69-3.1h4.4a4.868 4.868 0 0 1-1.24-1.38 3.579 3.579 0 0 1-.51-1.9 3.668 3.668 0 0 1 .72-2.34 3.563 3.563 0 0 1 2.08-1.23v-.95h-2.43a2.378 2.378 0 0 1-.62.83 1.6 1.6 0 0 1-1.1.36h-.54l.48-2.1-.48-2.09h.59a1.6 1.6 0 0 1 1.1.36 2.3 2.3 0 0 1 .62.83h6.88c.137-.322.35-.607.62-.83a1.6 1.6 0 0 1 1.1-.36h.58l-.49 2.09.48 2.1h-.58a1.6 1.6 0 0 1-1.1-.36 2.27 2.27 0 0 1-.62-.83h-1.83v1a2.999 2.999 0 0 1 1.79 1.12 2.87 2.87 0 0 1 .57 1.7 2.595 2.595 0 0 1-1 2 5.418 5.418 0 0 1-2.79 1.07c.278.212.58.39.9.53.364.161.747.275 1.14.34h3.35v4.02h-2.62v-2.17h-7.78a1.997 1.997 0 0 1-.82 1c-.306.17-.65.259-1 .26l-.54.03Zm6-6.47c.002.284.053.564.15.83a3.37 3.37 0 0 0 1.88-.45 1.184 1.184 0 0 0 .51-1 .999.999 0 0 0-.27-.69 1.186 1.186 0 0 0-.9-.3 1.26 1.26 0 0 0-1 .4 1.661 1.661 0 0 0-.38 1.21h.01Zm9.45 8.49a1.65 1.65 0 0 1-1.1-.35 2.422 2.422 0 0 1-.62-.84h-2.13v-1.81h2.13c.146-.317.357-.6.62-.83a1.6 1.6 0 0 1 1.1-.31h.58l-.47 2.09.47 2.09-.58-.04Z"></path><path fill="#19E" d="M109 64.882v-36.55h4.84l14.34 20.72 14.23-20.72h4.94v36.55h-7.32v-20.72l-10.62 15.28h-2.52l-10.68-15.28v20.72H109ZM153.91 53.502v-15.57h7v15.57c0 3.42 2 5.64 5.39 5.64 3.39 0 5.39-2.22 5.39-5.64v-15.57h7v15.57c0 7.57-4.65 12-12.36 12-7.71 0-12.42-4.43-12.42-12ZM203.02 37.932h7.61l-10.83 28.28c-2.62 6.88-6.08 10.14-11.42 10.14a9.63 9.63 0 0 1-5.19-1.33l1.22-5.84a8.253 8.253 0 0 0 3.47.89c2.17 0 3.9-1.43 5.24-4.25l.54-1.24-11.81-26.65h8.06l7 17.55 6.11-17.55ZM233.58 37.932h6.63v27h-6.63v-3.15a11.219 11.219 0 0 1-8.6 3.76 12.496 12.496 0 0 1-9.57-4.07 14.4 14.4 0 0 1-3.76-10.19 13.884 13.884 0 0 1 3.81-10 12.616 12.616 0 0 1 9.54-4 11.174 11.174 0 0 1 8.6 3.91l-.02-3.26Zm-2.07 8a7.569 7.569 0 0 0-10.83 0 7.877 7.877 0 0 0-2.08 5.49 7.77 7.77 0 0 0 2.13 5.54 7.541 7.541 0 0 0 5.39 2.272 7.532 7.532 0 0 0 5.39-2.272 8.088 8.088 0 0 0 0-11v-.03ZM253.47 64.882h-7v-37.59h7v37.59ZM262.41 41.342a15 15 0 0 1 20.77 0 13.647 13.647 0 0 1 4.06 10 13.703 13.703 0 0 1-4.06 10.09 15.2 15.2 0 0 1-20.77 0 13.699 13.699 0 0 1-4-10.09 13.651 13.651 0 0 1 4-10Zm10.39 17.75a7.002 7.002 0 0 0 5.29-2.22 7.828 7.828 0 0 0 2.18-5.49 7.582 7.582 0 0 0-2.18-5.44 6.999 6.999 0 0 0-5.29-2.23 7.105 7.105 0 0 0-5.39 2.23 7.521 7.521 0 0 0-2.13 5.44 7.738 7.738 0 0 0 2.13 5.49 7.113 7.113 0 0 0 5.35 2.22h.04ZM312.72 37.932h6.43v24.28c0 4.3-1.38 7.76-4.15 10.28a15.4 15.4 0 0 1-10.78 3.81 20.52 20.52 0 0 1-12.37-3.91l2.72-5.24a16.621 16.621 0 0 0 9.45 3.17c5.34 0 8.4-3.12 8.4-7.47v-1.38a10.569 10.569 0 0 1-8.3 3.46 12.849 12.849 0 0 1-9.7-3.91 13.621 13.621 0 0 1-3.76-9.89 13.481 13.481 0 0 1 4-9.94 13.314 13.314 0 0 1 9.79-4 10.843 10.843 0 0 1 8.31 3.66l-.04-2.92Zm-12.91 18.74a7.67 7.67 0 0 0 10.69 0 7.612 7.612 0 0 0 2.12-5.49 7.458 7.458 0 0 0-2.087-5.458 7.472 7.472 0 0 0-12.843 5.458 7.44 7.44 0 0 0 2.12 5.49ZM343.88 37.932h7.62l-10.83 28.28c-2.62 6.88-6.09 10.14-11.43 10.14a9.678 9.678 0 0 1-5.19-1.33l1.19-5.84a8.18 8.18 0 0 0 3.46.89c2.18 0 3.91-1.43 5.24-4.25l.55-1.24-11.77-26.65h8.06l7 17.55 6.1-17.55ZM293.69 27.912a3.332 3.332 0 0 1-3.11-1.53 8.543 8.543 0 0 1-.91-4.34 9.058 9.058 0 0 1 1.25-5.11 4.118 4.118 0 0 1 3.66-1.85h7.94a3.472 3.472 0 0 1 2.89 1.29 6.453 6.453 0 0 1 1.07 3.81h.93a2.3 2.3 0 0 1 .62-.83 1.6 1.6 0 0 1 1.1-.36h.58l-.48 2.1.48 2.09h-.58a1.6 1.6 0 0 1-1.1-.36 2.3 2.3 0 0 1-.62-.83h-1a5.898 5.898 0 0 1-1.2 3.31 3.153 3.153 0 0 1-2.54 1.14h-3.4v-9.41h-1.76v8.93a9.94 9.94 0 0 1-1 .95 4.7 4.7 0 0 1-1.23.73 4.361 4.361 0 0 1-1.59.27Zm.07-2c.224.01.447-.034.65-.13.172-.102.324-.234.45-.39v-8.36h-.18a1.719 1.719 0 0 0-1.39.66 4.323 4.323 0 0 0-.79 1.77 10.44 10.44 0 0 0-.26 2.46 9.086 9.086 0 0 0 .37 3c.27.68.65 1 1.15 1v-.01Zm8.16-1.45h.41a1.066 1.066 0 0 0 .83-.34c.226-.269.393-.582.49-.92.118-.408.195-.827.23-1.25 0-.45.06-.9.06-1.34v-1.17a5.992 5.992 0 0 0-.22-1.18 2.133 2.133 0 0 0-.47-.9.999.999 0 0 0-.82-.34h-.46l-.05 7.44ZM310.06 28.922l.47-2.09-.47-2.05h.58a1.6 1.6 0 0 1 1.1.35c.263.23.474.513.62.83h2.13v1.82h-2.08a2.424 2.424 0 0 1-.62.84 1.65 1.65 0 0 1-1.1.35l-.63-.05Zm3.35-1.14v-2.69a5.112 5.112 0 0 0-.33-2 8.445 8.445 0 0 0-.8-1.51c-.32-.49-.6-1-.84-1.42a3.996 3.996 0 0 1-.35-1.79 3.222 3.222 0 0 1 1.08-2.57 4.26 4.26 0 0 1 2.91-.94 4.14 4.14 0 0 1 2.9.92 3.28 3.28 0 0 1 1 2.5 3.53 3.53 0 0 1-.5 1.93 3.885 3.885 0 0 1-1.29 1.26 7.002 7.002 0 0 1-1.68.73c.201.453.338.93.41 1.42.092.572.139 1.15.14 1.73v2.43h-2.65Zm1.22-7.23c.481-.14.916-.405 1.26-.77.33-.374.502-.861.48-1.36a1.735 1.735 0 0 0-.31-1 1.078 1.078 0 0 0-1-.46 1.598 1.598 0 0 0-.95.32 1.335 1.335 0 0 0-.43 1.14c-.009.417.095.828.3 1.19.21.31.437.606.68.89l-.03.05ZM319.56 27.782c.045-1.789.255-3.57.63-5.32a7.458 7.458 0 0 1 1.44-3.19 4.741 4.741 0 0 1 2.5-1.5l-.85-2.64h2.73l3.85 12.65h-2.71l-2.38-8.06a2.312 2.312 0 0 0-1.45 1.16 8.1 8.1 0 0 0-.79 2.61 37.6 37.6 0 0 0-.4 4.29h-2.57Zm12.51-3.83a3.64 3.64 0 0 1-2.47-.71 2.385 2.385 0 0 1-.79-1.86v-.17h-1.72v-1.86h2.71a4.08 4.08 0 0 1 2.27-.55 3.61 3.61 0 0 1 2.47.7 2.3 2.3 0 0 1 .78 1.8 2.42 2.42 0 0 1-.208 1.01c-.142.318-.351.6-.612.83a3.419 3.419 0 0 1-2.43.76v.05Zm0-1.47a1.12 1.12 0 0 0 .76-.27 1.23 1.23 0 0 0 0-1.62 1.08 1.08 0 0 0-.77-.27 1.13 1.13 0 0 0-.79.27.993.993 0 0 0-.31.81 1.057 1.057 0 0 0 .31.81c.231.169.515.247.8.22v.05ZM334.96 26.902l.69-3.1h4.4a4.868 4.868 0 0 1-1.24-1.38 3.579 3.579 0 0 1-.51-1.9 3.668 3.668 0 0 1 .72-2.34 3.563 3.563 0 0 1 2.08-1.23v-.95h-2.43a2.378 2.378 0 0 1-.62.83 1.6 1.6 0 0 1-1.1.36h-.54l.48-2.1-.48-2.09h.59a1.6 1.6 0 0 1 1.1.36 2.3 2.3 0 0 1 .62.83h6.88c.137-.322.35-.607.62-.83a1.6 1.6 0 0 1 1.1-.36h.58l-.49 2.09.48 2.1h-.58a1.6 1.6 0 0 1-1.1-.36 2.27 2.27 0 0 1-.62-.83h-1.83v1a2.999 2.999 0 0 1 1.79 1.12 2.87 2.87 0 0 1 .57 1.7 2.595 2.595 0 0 1-1 2 5.418 5.418 0 0 1-2.79 1.07c.278.212.58.39.9.53.364.161.747.275 1.14.34h3.35v4.02h-2.62v-2.17h-7.78a1.997 1.997 0 0 1-.82 1c-.306.17-.65.259-1 .26l-.54.03Zm6-6.47c.002.284.053.564.15.83a3.37 3.37 0 0 0 1.88-.45 1.184 1.184 0 0 0 .51-1 .999.999 0 0 0-.27-.69 1.186 1.186 0 0 0-.9-.3 1.26 1.26 0 0 0-1 .4 1.661 1.661 0 0 0-.38 1.21h.01Zm9.45 8.49a1.65 1.65 0 0 1-1.1-.35 2.422 2.422 0 0 1-.62-.84h-2.13v-1.81h2.13c.146-.317.357-.6.62-.83a1.6 1.6 0 0 1 1.1-.31h.58l-.47 2.09.47 2.09-.58-.04Z"></path></svg>